<svg width="16" height="17" viewBox="0 0 16 17" fill="none" xmlns="http://www.w3.org/2000/svg">
<path d="M14.4998 11.1409H1.4997M14.4998 5.23926L1.4997 5.23926" stroke="black" stroke-width="1.5" stroke-linecap="square"/>
<path d="M8.49974 11.1397C8.49974 12.2442 9.39517 13.1397 10.4997 13.1397C11.6043 13.1397 12.4998 12.2442 12.4998 11.1397C12.4998 10.0351 11.6043 9.13965 10.4997 9.13965C9.39517 9.13965 8.49974 10.0351 8.49974 11.1397Z" fill="white" stroke="black" stroke-width="1.5" stroke-linecap="square"/>
<path d="M7.49977 5.23921C7.49977 6.34378 6.60434 7.23922 5.49976 7.23922C4.39519 7.23922 3.49976 6.34378 3.49976 5.23921C3.49976 4.13463 4.39519 3.2392 5.49976 3.2392C6.60434 3.2392 7.49977 4.13463 7.49977 5.23921Z" fill="white" stroke="black" stroke-width="1.5" stroke-linecap="square"/>
</svg>
