<svg width="16" height="17" viewBox="0 0 16 17" fill="none" xmlns="http://www.w3.org/2000/svg">
<g clip-path="url(#clip0_353_41863)">
<path d="M15.2496 8.28478C15.2496 12.2886 12.0038 15.5344 7.9998 15.5344C3.99583 15.5344 0.75 12.2886 0.75 8.28478C0.75 4.28094 3.99583 1.03516 7.9998 1.03516C12.0038 1.03516 15.2496 4.28094 15.2496 8.28478Z" stroke="white" stroke-width="1.5"/>
<path d="M7.14258 4.56997C7.14258 4.09662 7.52632 3.71289 7.99967 3.71289V3.71289C8.47303 3.71289 8.85677 4.09662 8.85677 4.56997V4.56997C8.85677 5.04332 8.47303 5.42705 7.99968 5.42705V5.42705C7.52632 5.42705 7.14258 5.04332 7.14258 4.56997V4.56997Z" fill="white"/>
<path fill-rule="evenodd" clip-rule="evenodd" d="M8.85677 6.28418V12.7124H7.14258V6.28418H8.85677Z" fill="white"/>
</g>
<defs>
<clipPath id="clip0_353_41863">
<rect width="16.0001" height="16.0001" fill="white" transform="translate(0 0.285156)"/>
</clipPath>
</defs>
</svg>
