<svg width="343" height="61" viewBox="0 0 343 61" fill="none" xmlns="http://www.w3.org/2000/svg">
<path fill-rule="evenodd" clip-rule="evenodd" d="M273.662 60.9922H267.285C265.92 60.9922 264.792 60.5956 263.915 59.7868C263.039 58.9858 262.61 57.9515 262.61 56.6684V33.284H268.481V56.2096H273.67V60.9922H273.662ZM284.655 27.716V4.79041H279.702V0H285.801C287.166 0 288.303 0.404385 289.179 1.21316C290.072 2.00637 290.518 3.064 290.518 4.32381V27.7082H284.655V27.716ZM290.518 56.6762C290.518 57.9593 290.072 58.9936 289.179 59.7946C288.303 60.6034 287.157 61 285.801 61H279.702V56.2096H284.655V33.284H290.518V56.6762ZM251.591 60.9922H245.728V0H251.591V60.9922ZM238.5 4.79041H228.282V60.9922H222.419V4.79041H212.108V0H238.5V4.79041ZM179.01 27.716V4.32381C179.01 3.05622 179.448 2.00637 180.316 1.21316C181.192 0.396609 182.321 0 183.685 0H200.702C202.092 0 203.229 0.404385 204.122 1.21316C205.032 2.00637 205.478 3.064 205.478 4.32381V18.5162H199.565V4.79041H184.865V27.7082H179.01V27.716ZM205.487 56.6762C205.487 57.9593 205.04 58.9936 204.13 59.7946C203.237 60.6034 202.1 61 200.71 61H183.694C182.329 61 181.2 60.6034 180.324 59.7946C179.448 58.9936 179.018 57.9593 179.018 56.6762V33.284H184.882V56.2096H199.581V41.2007H205.495V56.6762H205.487ZM169.845 60.9922H148.136V0H169.6V4.79041H154.008V27.5527H168.202V32.4364H154.008V56.2018H169.845V60.9922ZM140.125 60.9922H119.014V0H124.877V56.2096H140.116V60.9922H140.125ZM111.003 60.9922H89.8841V0H95.7556V56.2096H110.995V60.9922H111.003ZM51.4285 27.716V4.32381C51.4285 3.05622 51.8581 2.00637 52.7427 1.21316C53.6188 0.404385 54.7392 0 56.1207 0H62.1944V4.79041H57.3V27.7082H51.4285V27.716ZM62.1944 60.9922H56.1207C54.7392 60.9922 53.6272 60.5956 52.7427 59.7868C51.8581 58.9858 51.4285 57.9515 51.4285 56.6684V33.284H57.3V56.2096H62.1944V60.9922ZM73.4741 27.716V4.79041H68.226V0H74.6114C75.9845 0 77.1217 0.404385 77.9978 1.21316C78.8908 2.00637 79.3372 3.064 79.3372 4.32381V27.7082H73.4741V27.716ZM79.3457 56.6762C79.3457 57.9593 78.8992 58.9936 78.0062 59.7946C77.1301 60.6034 75.9845 61 74.6198 61H68.2344V56.2096H73.4826V33.284H79.3457V56.6762ZM41.1681 56.6762C41.1681 57.9593 40.7216 58.9936 39.8118 59.7946C38.9189 60.6034 37.7816 61 36.4001 61H19.3752C18.0105 61 16.8817 60.6034 16.0056 59.7946C15.1295 58.9936 14.6999 57.9593 14.6999 56.6762V33.284H20.563V56.2096H35.2629V41.2007H41.1681V56.6762ZM14.6999 27.716H0V22.9333H14.6999V4.32381C14.6999 3.05622 15.1295 2.00637 16.0056 1.21316C16.8817 0.404385 18.0105 0 19.3752 0H36.4001C37.7816 0 38.9189 0.404385 39.8118 1.21316C40.7216 2.00637 41.1681 3.064 41.1681 4.32381V18.5162H35.2629V4.79041H20.563V27.7082H14.6999V27.716ZM343 4.79041H328.3V60.9922H324.248L306.6 16.1365V60.9922H301.065V0H305.463L322.766 44.0936V0H343V4.79041ZM262.601 27.716V4.32381C262.601 3.05622 263.039 2.00637 263.907 1.21316C264.792 0.396609 265.912 0 267.277 0H273.654V4.79041H268.464V27.7082H262.601V27.716Z" fill="black"/>
</svg>
