<svg width="16" height="18" viewBox="0 0 16 18" fill="none" xmlns="http://www.w3.org/2000/svg">
<g id="Group 11">
<path id="Rectangle 1" d="M13.5 16.8571V17.6071C13.9142 17.6071 14.25 17.2713 14.25 16.8571H13.5ZM2.5 16.8571H1.75C1.75 17.2713 2.08579 17.6071 2.5 17.6071V16.8571ZM2.5 4.00049H3.25C3.25 3.58627 2.91421 3.25049 2.5 3.25049V4.00049ZM13.5 4.00049V3.25049C13.0858 3.25049 12.75 3.58627 12.75 4.00049H13.5ZM9.25 13.5005V14.2505H10.75V13.5005H9.25ZM10.75 7.50049V6.75049H9.25V7.50049H10.75ZM5.25 13.5005V14.2505H6.75V13.5005H5.25ZM6.75 7.50049V6.75049H5.25V7.50049H6.75ZM0.5 4.75049H15.5V3.25049H0.5V4.75049ZM13.5 16.1071H2.5V17.6071H13.5V16.1071ZM3.25 16.8571V4.00049H1.75V16.8571H3.25ZM2.5 3.25049H0.5V4.75049H2.5V3.25049ZM15.5 3.25049H13.5V4.75049H15.5V3.25049ZM12.75 4.00049V16.8571H14.25V4.00049H12.75ZM9.25 7.50049V13.5005H10.75V7.50049H9.25ZM5.25 7.50049V13.5005H6.75V7.50049H5.25Z" fill="black"/>
<path id="Rectangle 2" d="M5.5 1.42871H7.99972H10.5L10.5 4L5.5 4L5.5 1.42871Z" stroke="black" stroke-width="1.5" stroke-linecap="square" stroke-linejoin="round"/>
</g>
</svg>
