<svg width="16" height="17" viewBox="0 0 16 17" fill="none" xmlns="http://www.w3.org/2000/svg">
<path fill-rule="evenodd" clip-rule="evenodd" d="M2.75 7.37114C2.75 5.13285 4.56449 3.31836 6.80278 3.31836C9.04107 3.31836 10.8556 5.13285 10.8556 7.37114C10.8556 9.60943 9.04107 11.4239 6.80278 11.4239C4.56449 11.4239 2.75 9.60943 2.75 7.37114ZM6.80278 1.81836C3.73606 1.81836 1.25 4.30442 1.25 7.37114C1.25 10.4379 3.73606 12.9239 6.80278 12.9239C8.06635 12.9239 9.23134 12.5019 10.1645 11.7911L12.7732 14.3998L13.3035 14.9301L14.3642 13.8694L13.8338 13.3391L11.2248 10.7301C11.9343 9.7974 12.3556 8.63346 12.3556 7.37114C12.3556 4.30442 9.8695 1.81836 6.80278 1.81836Z" fill="white"/>
</svg>
