<svg width="16" height="16" viewBox="0 0 16 16" fill="none" xmlns="http://www.w3.org/2000/svg">
<path fill-rule="evenodd" clip-rule="evenodd" d="M2.75008 6.80181C2.75008 4.56352 4.56457 2.74902 6.80286 2.74902C9.04115 2.74902 10.8556 4.56352 10.8556 6.80181C10.8556 9.0401 9.04115 10.8546 6.80286 10.8546C4.56457 10.8546 2.75008 9.0401 2.75008 6.80181ZM6.80286 1.24902C3.73614 1.24902 1.25008 3.73509 1.25008 6.80181C1.25008 9.86852 3.73614 12.3546 6.80286 12.3546C8.06642 12.3546 9.23141 11.9325 10.1646 11.2217L12.7733 13.8304L13.3036 14.3608L14.3642 13.3001L13.8339 12.7698L11.2249 10.1607C11.9344 9.22806 12.3556 8.06412 12.3556 6.80181C12.3556 3.73509 9.86957 1.24902 6.80286 1.24902Z" fill="black"/>
</svg>
