<svg width="34" height="34" viewBox="0 0 34 34" fill="none" xmlns="http://www.w3.org/2000/svg">
<g id="ic:baseline-telegram">
<path id="Vector" d="M16.9997 2.8335C9.17967 2.8335 2.83301 9.18016 2.83301 17.0002C2.83301 24.8202 9.17967 31.1668 16.9997 31.1668C24.8197 31.1668 31.1663 24.8202 31.1663 17.0002C31.1663 9.18016 24.8197 2.8335 16.9997 2.8335ZM23.573 12.4668C23.3605 14.7052 22.4397 20.1452 21.9722 22.6527C21.7738 23.7152 21.3772 24.0693 21.0088 24.1118C20.1872 24.1827 19.5638 23.5735 18.7705 23.0493C17.5238 22.2277 16.8155 21.7177 15.6113 20.9243C14.2088 20.0035 15.1155 19.4935 15.923 18.6718C16.1355 18.4593 19.7622 15.1585 19.833 14.861C19.8428 14.8159 19.8415 14.7692 19.8292 14.7247C19.8169 14.6803 19.7938 14.6395 19.7622 14.606C19.6772 14.5352 19.5638 14.5635 19.4647 14.5777C19.3372 14.606 17.3538 15.9235 13.4863 18.5302C12.9197 18.9127 12.4097 19.111 11.9563 19.0968C11.4463 19.0827 10.483 18.8135 9.76051 18.5727C8.86801 18.2893 8.17384 18.1335 8.23051 17.6377C8.25884 17.3827 8.61301 17.1277 9.27884 16.8585C13.4155 15.0593 16.1638 13.8693 17.538 13.3027C21.4763 11.6593 22.2838 11.376 22.8222 11.376C22.9355 11.376 23.2047 11.4043 23.3747 11.546C23.5163 11.6593 23.5588 11.8152 23.573 11.9285C23.5588 12.0135 23.5872 12.2685 23.573 12.4668Z" fill="black"/>
</g>
</svg>
