<svg width="42" height="42" viewBox="0 0 42 42" fill="none" xmlns="http://www.w3.org/2000/svg">
<circle cx="21" cy="21" r="21" fill="black"/>
<path d="M29.3615 17.549V12.6385H24.4614L20.9791 9.1875L17.549 12.6385H12.6385V17.549L9.1875 20.9791L12.6385 24.4614V29.3615H17.549L20.9791 32.8125L24.4614 29.3615H29.3615V24.4614L32.8125 20.9791L29.3615 17.549Z" fill="white" stroke="white" stroke-linejoin="round"/>
<path d="M17.0625 24.9375L24.9375 17.0625" stroke="black" stroke-width="1.5" stroke-linecap="square"/>
<path d="M19.0312 17.7188C19.0312 18.4436 18.4436 19.0312 17.7188 19.0312C16.9939 19.0312 16.4062 18.4436 16.4062 17.7188C16.4062 16.9939 16.9939 16.4062 17.7188 16.4062C18.4436 16.4062 19.0312 16.9939 19.0312 17.7188Z" fill="black"/>
<path d="M25.5938 24.2812C25.5938 25.0061 25.0061 25.5938 24.2812 25.5938C23.5564 25.5938 22.9688 25.0061 22.9688 24.2812C22.9688 23.5564 23.5564 22.9688 24.2812 22.9688C25.0061 22.9688 25.5938 23.5564 25.5938 24.2812Z" fill="black"/>
</svg>
