<svg width="42" height="42" viewBox="0 0 42 42" fill="none" xmlns="http://www.w3.org/2000/svg">
<circle cx="21" cy="21" r="21" fill="black"/>
<circle cx="21" cy="21" r="10.5" fill="white"/>
<path d="M13.125 23.625L11.8125 30.1875L18.375 28.875V23.625H13.125Z" fill="white" stroke="white" stroke-linecap="round" stroke-linejoin="round"/>
<path d="M17.7188 21C17.7188 21.7249 17.1311 22.3125 16.4062 22.3125C15.6814 22.3125 15.0938 21.7249 15.0938 21C15.0938 20.2751 15.6814 19.6875 16.4062 19.6875C17.1311 19.6875 17.7188 20.2751 17.7188 21Z" fill="black"/>
<circle cx="21" cy="21" r="1.3125" fill="black"/>
<path d="M26.9062 21C26.9062 21.7249 26.3186 22.3125 25.5938 22.3125C24.8689 22.3125 24.2812 21.7249 24.2812 21C24.2812 20.2751 24.8689 19.6875 25.5938 19.6875C26.3186 19.6875 26.9062 20.2751 26.9062 21Z" fill="black"/>
</svg>
